<mxfile host="app.diagrams.net" modified="2023-04-02T11:35:26.599Z" agent="Mozilla/5.0 (Windows NT 10.0; Win64; x64) AppleWebKit/537.36 (KHTML, like Gecko) Chrome/111.0.0.0 Safari/537.36 Edg/111.0.1661.62" etag="W82Nl3MnmLr43qMKaGr9" version="21.1.1" type="github">
  <diagram name="第 1 页" id="ydfWIhaEGLxtbmc5iYuI">
    <mxGraphModel dx="954" dy="176" grid="1" gridSize="10" guides="1" tooltips="1" connect="1" arrows="1" fold="1" page="0" pageScale="1" pageWidth="827" pageHeight="1169" math="1" shadow="0">
      <root>
        <mxCell id="0" />
        <mxCell id="1" parent="0" />
        <mxCell id="ERm1mdS63n6slfigO-xv-26" style="orthogonalLoop=1;jettySize=auto;html=1;endFill=1;movable=1;resizable=1;rotatable=1;deletable=1;editable=1;locked=0;connectable=1;endArrow=classicThin;" parent="1" edge="1">
          <mxGeometry relative="1" as="geometry">
            <mxPoint x="370" y="730" as="sourcePoint" />
            <mxPoint x="560" y="730" as="targetPoint" />
          </mxGeometry>
        </mxCell>
        <mxCell id="ERm1mdS63n6slfigO-xv-6" value="云服务器" style="text;html=1;align=center;verticalAlign=middle;resizable=0;points=[];autosize=1;strokeColor=none;fillColor=none;" parent="1" vertex="1">
          <mxGeometry x="295" y="730" width="70" height="30" as="geometry" />
        </mxCell>
        <mxCell id="ERm1mdS63n6slfigO-xv-11" value="" style="endArrow=classicThin;html=1;rounded=0;endFill=1;" parent="1" edge="1">
          <mxGeometry width="50" height="50" relative="1" as="geometry">
            <mxPoint x="100" y="710" as="sourcePoint" />
            <mxPoint x="290" y="710" as="targetPoint" />
          </mxGeometry>
        </mxCell>
        <mxCell id="ERm1mdS63n6slfigO-xv-14" value="托管密文模型" style="text;html=1;align=center;verticalAlign=middle;resizable=0;points=[];autosize=1;strokeColor=none;fillColor=none;" parent="1" vertex="1">
          <mxGeometry x="120" y="670" width="100" height="30" as="geometry" />
        </mxCell>
        <mxCell id="ERm1mdS63n6slfigO-xv-16" value="" style="endArrow=classicThin;html=1;rounded=0;entryX=1.064;entryY=0.488;entryDx=0;entryDy=0;entryPerimeter=0;endFill=1;" parent="1" target="8cyVTwTjGE4YOZVXD0gR-72" edge="1">
          <mxGeometry width="50" height="50" relative="1" as="geometry">
            <mxPoint x="560" y="710" as="sourcePoint" />
            <mxPoint x="380" y="525" as="targetPoint" />
          </mxGeometry>
        </mxCell>
        <mxCell id="ERm1mdS63n6slfigO-xv-20" value="密文待预测数据" style="text;html=1;align=center;verticalAlign=middle;resizable=0;points=[];autosize=1;strokeColor=none;fillColor=none;" parent="1" vertex="1">
          <mxGeometry x="430" y="670" width="110" height="30" as="geometry" />
        </mxCell>
        <mxCell id="8cyVTwTjGE4YOZVXD0gR-23" value="密文推理结果" style="text;html=1;align=center;verticalAlign=middle;resizable=0;points=[];autosize=1;strokeColor=none;fillColor=none;" parent="1" vertex="1">
          <mxGeometry x="160" y="745" width="100" height="30" as="geometry" />
        </mxCell>
        <mxCell id="8cyVTwTjGE4YOZVXD0gR-72" value="" style="sketch=0;aspect=fixed;pointerEvents=1;shadow=0;dashed=0;html=1;labelPosition=center;verticalLabelPosition=bottom;verticalAlign=top;align=center;shape=mxgraph.mscae.enterprise.internet;fillColor=#7EA6E0;" parent="1" vertex="1">
          <mxGeometry x="295" y="690" width="70" height="40" as="geometry" />
        </mxCell>
        <mxCell id="pqwwj5nf9vd8e8HmNHnj-2" value="" style="group" parent="1" vertex="1" connectable="0">
          <mxGeometry x="400" y="660" width="40" height="40" as="geometry" />
        </mxCell>
        <mxCell id="8cyVTwTjGE4YOZVXD0gR-37" value="" style="sketch=0;pointerEvents=1;shadow=0;dashed=0;html=1;strokeColor=none;fillColor=#505050;labelPosition=center;verticalLabelPosition=bottom;verticalAlign=top;outlineConnect=0;align=center;shape=mxgraph.office.security.lock_with_key_security_orange;container=0;" parent="pqwwj5nf9vd8e8HmNHnj-2" vertex="1">
          <mxGeometry x="20" y="20" width="20" height="20" as="geometry" />
        </mxCell>
        <mxCell id="8cyVTwTjGE4YOZVXD0gR-46" value="" style="sketch=0;aspect=fixed;pointerEvents=1;shadow=0;dashed=0;html=1;strokeColor=none;labelPosition=center;verticalLabelPosition=bottom;verticalAlign=top;align=center;fillColor=#00188D;shape=mxgraph.mscae.enterprise.document;container=0;" parent="pqwwj5nf9vd8e8HmNHnj-2" vertex="1">
          <mxGeometry width="20" height="30" as="geometry" />
        </mxCell>
        <mxCell id="pqwwj5nf9vd8e8HmNHnj-6" value="" style="group;glass=0;" parent="1" vertex="1" connectable="0">
          <mxGeometry x="20" y="690" width="80" height="80" as="geometry" />
        </mxCell>
        <mxCell id="ERm1mdS63n6slfigO-xv-2" value="服务提供商" style="text;html=1;align=center;verticalAlign=middle;resizable=0;points=[];autosize=1;strokeColor=none;fillColor=none;container=0;" parent="pqwwj5nf9vd8e8HmNHnj-6" vertex="1">
          <mxGeometry y="50" width="80" height="30" as="geometry" />
        </mxCell>
        <mxCell id="8cyVTwTjGE4YOZVXD0gR-40" value="" style="sketch=0;pointerEvents=1;shadow=0;dashed=0;html=1;strokeColor=none;labelPosition=center;verticalLabelPosition=bottom;verticalAlign=top;outlineConnect=0;align=center;shape=mxgraph.office.security.key_permissions;fillColor=#2072B8;container=0;" parent="pqwwj5nf9vd8e8HmNHnj-6" vertex="1">
          <mxGeometry x="65" y="30" width="10" height="20" as="geometry" />
        </mxCell>
        <mxCell id="ERm1mdS63n6slfigO-xv-1" value="" style="image;points=[];aspect=fixed;html=1;align=center;shadow=0;dashed=0;image=img/lib/allied_telesis/computer_and_terminals/Personal_Computer_with_Server.svg;container=0;" parent="pqwwj5nf9vd8e8HmNHnj-6" vertex="1">
          <mxGeometry x="15" width="50" height="50" as="geometry" />
        </mxCell>
        <mxCell id="pqwwj5nf9vd8e8HmNHnj-7" style="orthogonalLoop=1;jettySize=auto;html=1;endFill=1;movable=1;resizable=1;rotatable=1;deletable=1;editable=1;locked=0;connectable=1;endArrow=classicThin;" parent="1" edge="1">
          <mxGeometry relative="1" as="geometry">
            <mxPoint x="290" y="730" as="sourcePoint" />
            <mxPoint x="100" y="730" as="targetPoint" />
          </mxGeometry>
        </mxCell>
        <mxCell id="pqwwj5nf9vd8e8HmNHnj-11" value="" style="group" parent="1" vertex="1" connectable="0">
          <mxGeometry x="210" y="660" width="50" height="40" as="geometry" />
        </mxCell>
        <mxCell id="pqwwj5nf9vd8e8HmNHnj-12" value="" style="sketch=0;pointerEvents=1;shadow=0;dashed=0;html=1;strokeColor=none;fillColor=#505050;labelPosition=center;verticalLabelPosition=bottom;verticalAlign=top;outlineConnect=0;align=center;shape=mxgraph.office.security.lock_with_key_security_blue;container=0;" parent="pqwwj5nf9vd8e8HmNHnj-11" vertex="1">
          <mxGeometry x="30" y="20" width="20" height="20" as="geometry" />
        </mxCell>
        <mxCell id="pqwwj5nf9vd8e8HmNHnj-13" value="" style="sketch=0;outlineConnect=0;fontColor=#232F3E;gradientColor=none;fillColor=#067F68;strokeColor=none;dashed=0;verticalLabelPosition=bottom;verticalAlign=top;align=center;html=1;fontSize=12;fontStyle=0;aspect=fixed;pointerEvents=1;shape=mxgraph.aws4.sagemaker_model;container=0;" parent="pqwwj5nf9vd8e8HmNHnj-11" vertex="1">
          <mxGeometry width="30" height="30" as="geometry" />
        </mxCell>
        <mxCell id="pqwwj5nf9vd8e8HmNHnj-15" value="" style="endArrow=none;dashed=1;html=1;rounded=0;curved=1;" parent="1" edge="1">
          <mxGeometry width="50" height="50" relative="1" as="geometry">
            <mxPoint x="60" y="680" as="sourcePoint" />
            <mxPoint x="580" y="680" as="targetPoint" />
            <Array as="points">
              <mxPoint x="320" y="530" />
            </Array>
          </mxGeometry>
        </mxCell>
        <mxCell id="pqwwj5nf9vd8e8HmNHnj-19" value="密文推理结果" style="text;html=1;align=center;verticalAlign=middle;resizable=0;points=[];autosize=1;strokeColor=none;fillColor=none;" parent="1" vertex="1">
          <mxGeometry x="410" y="745" width="100" height="30" as="geometry" />
        </mxCell>
        <mxCell id="pqwwj5nf9vd8e8HmNHnj-22" value="" style="group" parent="1" vertex="1" connectable="0">
          <mxGeometry x="270" y="575" width="100" height="30" as="geometry" />
        </mxCell>
        <mxCell id="8cyVTwTjGE4YOZVXD0gR-41" value="" style="sketch=0;pointerEvents=1;shadow=0;dashed=0;html=1;strokeColor=none;labelPosition=center;verticalLabelPosition=bottom;verticalAlign=top;outlineConnect=0;align=center;shape=mxgraph.office.security.key_permissions;fillColor=#DA4026;container=0;" parent="pqwwj5nf9vd8e8HmNHnj-22" vertex="1">
          <mxGeometry x="90" y="5" width="10" height="20" as="geometry" />
        </mxCell>
        <mxCell id="8cyVTwTjGE4YOZVXD0gR-20" value="共同掌握密钥" style="text;html=1;align=center;verticalAlign=middle;resizable=0;points=[];autosize=1;strokeColor=none;fillColor=none;container=0;" parent="pqwwj5nf9vd8e8HmNHnj-22" vertex="1">
          <mxGeometry width="100" height="30" as="geometry" />
        </mxCell>
        <mxCell id="nHxBgdvHP8Mmgvg3R_qE-2" value="" style="group" parent="1" vertex="1" connectable="0">
          <mxGeometry x="500" y="740" width="45" height="35" as="geometry" />
        </mxCell>
        <mxCell id="pqwwj5nf9vd8e8HmNHnj-16" value="" style="shape=image;html=1;verticalAlign=top;verticalLabelPosition=bottom;labelBackgroundColor=#ffffff;imageAspect=0;aspect=fixed;image=https://cdn4.iconfinder.com/data/icons/ionicons/512/icon-document-text-128.png" parent="nHxBgdvHP8Mmgvg3R_qE-2" vertex="1">
          <mxGeometry width="30" height="30" as="geometry" />
        </mxCell>
        <mxCell id="pqwwj5nf9vd8e8HmNHnj-17" value="" style="sketch=0;pointerEvents=1;shadow=0;dashed=0;html=1;strokeColor=none;fillColor=#505050;labelPosition=center;verticalLabelPosition=bottom;verticalAlign=top;outlineConnect=0;align=center;shape=mxgraph.office.security.lock_with_key_security_orange;container=0;" parent="nHxBgdvHP8Mmgvg3R_qE-2" vertex="1">
          <mxGeometry x="25" y="15" width="20" height="20" as="geometry" />
        </mxCell>
        <mxCell id="nHxBgdvHP8Mmgvg3R_qE-3" value="" style="group" parent="1" vertex="1" connectable="0">
          <mxGeometry x="120" y="740" width="45" height="35" as="geometry" />
        </mxCell>
        <mxCell id="nHxBgdvHP8Mmgvg3R_qE-4" value="" style="shape=image;html=1;verticalAlign=top;verticalLabelPosition=bottom;labelBackgroundColor=#ffffff;imageAspect=0;aspect=fixed;image=https://cdn4.iconfinder.com/data/icons/ionicons/512/icon-document-text-128.png" parent="nHxBgdvHP8Mmgvg3R_qE-3" vertex="1">
          <mxGeometry width="30" height="30" as="geometry" />
        </mxCell>
        <mxCell id="nHxBgdvHP8Mmgvg3R_qE-5" value="" style="sketch=0;pointerEvents=1;shadow=0;dashed=0;html=1;strokeColor=none;fillColor=#505050;labelPosition=center;verticalLabelPosition=bottom;verticalAlign=top;outlineConnect=0;align=center;shape=mxgraph.office.security.lock_with_key_security_orange;container=0;" parent="nHxBgdvHP8Mmgvg3R_qE-3" vertex="1">
          <mxGeometry x="25" y="15" width="20" height="20" as="geometry" />
        </mxCell>
        <mxCell id="HkoRUErgVVi40yizwiJe-2" value="" style="sketch=0;pointerEvents=1;shadow=0;dashed=0;html=1;strokeColor=none;fillColor=#505050;labelPosition=center;verticalLabelPosition=bottom;verticalAlign=top;outlineConnect=0;align=center;shape=mxgraph.office.users.user;" vertex="1" parent="1">
          <mxGeometry x="562" y="685" width="46" height="50" as="geometry" />
        </mxCell>
        <mxCell id="ERm1mdS63n6slfigO-xv-3" value="用户" style="text;html=1;align=center;verticalAlign=middle;resizable=0;points=[];autosize=1;strokeColor=none;fillColor=none;container=0;" parent="1" vertex="1">
          <mxGeometry x="560" y="730" width="50" height="30" as="geometry" />
        </mxCell>
      </root>
    </mxGraphModel>
  </diagram>
</mxfile>
